<svg xmlns="http://www.w3.org/2000/svg" xmlns:xlink="http://www.w3.org/1999/xlink" width="500" zoomAndPan="magnify" viewBox="0 0 375 374.999991" height="500" preserveAspectRatio="xMidYMid meet" version="1.0"><defs><filter x="0%" y="0%" width="100%" xlink:type="simple" xlink:actuate="onLoad" height="100%" id="id1" xlink:show="other"><feColorMatrix values="0 0 0 0 1 0 0 0 0 1 0 0 0 0 1 0 0 0 1 0" color-interpolation-filters="sRGB"/></filter><g><g id="id2"/><g id="id3"/></g><clipPath id="id4"><path d="M 39.9375 38 L 337.6875 38 L 337.6875 336 L 39.9375 336 Z M 39.9375 38 " clip-rule="nonzero"/></clipPath><mask id="id5"><g filter="url(#id1)"><rect x="-37.5" width="450" fill="rgb(0%, 0%, 0%)" y="-37.499999" height="449.999989" fill-opacity="0.9882"/></g></mask><clipPath id="id6"><rect x="0" width="278" y="0" height="256"/></clipPath></defs><g clip-path="url(#id4)"><path fill="rgb(0%, 0%, 0%)" d="M 319.277344 122.660156 L 215.0625 47.035156 C 214.117188 46.347656 213.144531 45.699219 212.148438 45.089844 C 211.152344 44.480469 210.132812 43.910156 209.089844 43.378906 C 208.046875 42.847656 206.984375 42.359375 205.902344 41.914062 C 204.824219 41.464844 203.726562 41.0625 202.613281 40.699219 C 201.5 40.339844 200.375 40.023438 199.238281 39.75 C 198.101562 39.476562 196.953125 39.25 195.800781 39.066406 C 194.644531 38.882812 193.484375 38.746094 192.316406 38.65625 C 191.148438 38.5625 189.980469 38.519531 188.8125 38.519531 C 187.644531 38.519531 186.472656 38.5625 185.308594 38.65625 C 184.140625 38.746094 182.980469 38.882812 181.824219 39.066406 C 180.671875 39.25 179.523438 39.476562 178.386719 39.75 C 177.25 40.023438 176.125 40.339844 175.011719 40.699219 C 173.898438 41.0625 172.800781 41.464844 171.722656 41.914062 C 170.640625 42.359375 169.578125 42.847656 168.535156 43.378906 C 167.492188 43.910156 166.472656 44.480469 165.476562 45.089844 C 164.480469 45.699219 163.507812 46.347656 162.5625 47.035156 L 58.347656 122.660156 C 56.929688 123.6875 55.578125 124.796875 54.292969 125.984375 C 53.007812 127.167969 51.792969 128.429688 50.65625 129.757812 C 49.515625 131.085938 48.460938 132.476562 47.488281 133.933594 C 46.511719 135.386719 45.625 136.890625 44.828125 138.449219 C 44.03125 140.007812 43.328125 141.605469 42.722656 143.246094 C 42.113281 144.886719 41.601562 146.554688 41.191406 148.253906 C 40.777344 149.957031 40.46875 151.671875 40.257812 153.410156 C 40.046875 155.148438 39.941406 156.890625 39.9375 158.640625 L 39.9375 291.15625 C 39.9375 292.617188 40.007812 294.074219 40.152344 295.527344 C 40.296875 296.980469 40.511719 298.421875 40.796875 299.855469 C 41.082031 301.289062 41.4375 302.703125 41.859375 304.101562 C 42.285156 305.5 42.777344 306.875 43.335938 308.222656 C 43.898438 309.574219 44.523438 310.890625 45.210938 312.179688 C 45.902344 313.46875 46.652344 314.71875 47.464844 315.933594 C 48.277344 317.148438 49.148438 318.320312 50.074219 319.449219 C 51.003906 320.578125 51.984375 321.660156 53.019531 322.691406 C 54.054688 323.726562 55.136719 324.707031 56.265625 325.632812 C 57.398438 326.558594 58.570312 327.429688 59.785156 328.238281 C 61.003906 329.050781 62.257812 329.800781 63.546875 330.488281 C 64.835938 331.179688 66.15625 331.800781 67.507812 332.363281 C 68.859375 332.921875 70.234375 333.410156 71.636719 333.835938 C 73.035156 334.261719 74.453125 334.613281 75.886719 334.898438 C 77.320312 335.183594 78.765625 335.398438 80.222656 335.542969 C 81.679688 335.683594 83.136719 335.757812 84.601562 335.757812 L 293.023438 335.757812 C 294.488281 335.757812 295.945312 335.683594 297.402344 335.542969 C 298.859375 335.398438 300.304688 335.183594 301.738281 334.898438 C 303.171875 334.613281 304.589844 334.261719 305.988281 333.835938 C 307.390625 333.410156 308.765625 332.921875 310.117188 332.363281 C 311.46875 331.800781 312.789062 331.179688 314.078125 330.488281 C 315.367188 329.800781 316.621094 329.050781 317.839844 328.238281 C 319.054688 327.429688 320.226562 326.558594 321.359375 325.632812 C 322.488281 324.707031 323.570312 323.726562 324.605469 322.691406 C 325.640625 321.660156 326.621094 320.578125 327.550781 319.449219 C 328.476562 318.320312 329.347656 317.148438 330.160156 315.933594 C 330.972656 314.71875 331.722656 313.46875 332.414062 312.179688 C 333.101562 310.890625 333.726562 309.574219 334.289062 308.222656 C 334.847656 306.875 335.339844 305.5 335.765625 304.101562 C 336.1875 302.703125 336.542969 301.289062 336.828125 299.855469 C 337.113281 298.421875 337.328125 296.980469 337.472656 295.527344 C 337.617188 294.074219 337.6875 292.617188 337.6875 291.15625 L 337.6875 158.640625 C 337.683594 156.890625 337.578125 155.148438 337.367188 153.410156 C 337.15625 151.671875 336.847656 149.957031 336.433594 148.253906 C 336.023438 146.554688 335.511719 144.886719 334.902344 143.246094 C 334.296875 141.605469 333.59375 140.007812 332.796875 138.449219 C 332 136.890625 331.113281 135.386719 330.136719 133.933594 C 329.164062 132.476562 328.109375 131.085938 326.96875 129.757812 C 325.832031 128.429688 324.617188 127.167969 323.332031 125.984375 C 322.046875 124.796875 320.695312 123.6875 319.277344 122.660156 Z M 327.761719 291.15625 C 327.761719 292.292969 327.707031 293.425781 327.59375 294.554688 C 327.484375 295.6875 327.316406 296.808594 327.09375 297.921875 C 326.875 299.035156 326.597656 300.136719 326.265625 301.226562 C 325.9375 302.3125 325.554688 303.378906 325.117188 304.429688 C 324.683594 305.480469 324.195312 306.503906 323.660156 307.507812 C 323.125 308.511719 322.539062 309.484375 321.90625 310.429688 C 321.277344 311.371094 320.597656 312.285156 319.878906 313.164062 C 319.15625 314.039062 318.394531 314.882812 317.589844 315.683594 C 316.785156 316.488281 315.941406 317.25 315.0625 317.972656 C 314.183594 318.691406 313.269531 319.367188 312.324219 320 C 311.378906 320.628906 310.402344 321.214844 309.398438 321.75 C 308.398438 322.285156 307.371094 322.769531 306.320312 323.203125 C 305.265625 323.640625 304.199219 324.023438 303.109375 324.351562 C 302.019531 324.679688 300.917969 324.957031 299.800781 325.179688 C 298.6875 325.398438 297.5625 325.566406 296.429688 325.679688 C 295.296875 325.789062 294.164062 325.84375 293.023438 325.84375 L 84.601562 325.84375 C 83.460938 325.84375 82.328125 325.789062 81.195312 325.679688 C 80.0625 325.566406 78.9375 325.398438 77.824219 325.179688 C 76.707031 324.957031 75.605469 324.679688 74.515625 324.351562 C 73.425781 324.023438 72.359375 323.640625 71.304688 323.203125 C 70.253906 322.769531 69.226562 322.285156 68.226562 321.75 C 67.222656 321.214844 66.246094 320.628906 65.300781 320 C 64.355469 319.367188 63.441406 318.691406 62.5625 317.972656 C 61.683594 317.25 60.839844 316.488281 60.035156 315.683594 C 59.230469 314.882812 58.46875 314.039062 57.746094 313.164062 C 57.027344 312.285156 56.347656 311.371094 55.71875 310.429688 C 55.085938 309.484375 54.5 308.511719 53.964844 307.507812 C 53.429688 306.503906 52.941406 305.480469 52.507812 304.429688 C 52.070312 303.378906 51.6875 302.3125 51.359375 301.226562 C 51.027344 300.136719 50.75 299.035156 50.53125 297.921875 C 50.308594 296.808594 50.140625 295.6875 50.03125 294.554688 C 49.917969 293.425781 49.863281 292.292969 49.863281 291.15625 L 49.863281 158.640625 C 49.863281 155.902344 50.1875 153.203125 50.828125 150.542969 C 51.472656 147.882812 52.414062 145.332031 53.664062 142.894531 C 54.910156 140.457031 56.421875 138.199219 58.203125 136.121094 C 59.984375 134.039062 61.984375 132.195312 64.203125 130.589844 L 168.417969 54.964844 C 169.890625 53.894531 171.441406 52.945312 173.066406 52.121094 C 174.6875 51.292969 176.367188 50.597656 178.101562 50.035156 C 179.835938 49.472656 181.601562 49.050781 183.402344 48.765625 C 185.203125 48.480469 187.015625 48.339844 188.835938 48.339844 C 190.660156 48.339844 192.472656 48.480469 194.273438 48.765625 C 196.074219 49.050781 197.839844 49.472656 199.574219 50.035156 C 201.308594 50.597656 202.984375 51.292969 204.609375 52.121094 C 206.234375 52.945312 207.785156 53.894531 209.257812 54.964844 L 313.46875 130.589844 C 315.683594 132.199219 317.679688 134.042969 319.457031 136.125 C 321.234375 138.203125 322.742188 140.464844 323.984375 142.902344 C 325.226562 145.339844 326.167969 147.886719 326.804688 150.546875 C 327.441406 153.207031 327.761719 155.902344 327.761719 158.640625 Z M 327.761719 291.15625 " fill-opacity="1" fill-rule="nonzero"/></g><g mask="url(#id5)"><g transform="matrix(1, 0, 0, 1, 51, 87)"><g clip-path="url(#id6)"><g fill="rgb(0%, 100%, 100%)" fill-opacity="1"><g transform="translate(12.646946, 202.445285)"><g><path d="M 115.96875 -73.515625 C 117.351562 -52.523438 112.644531 -35.972656 101.84375 -23.859375 C 91.050781 -11.742188 75.191406 -4.992188 54.265625 -3.609375 L 13.59375 -0.90625 L 5.25 -126.640625 L 48.765625 -129.53125 C 68.941406 -130.863281 84.859375 -126.734375 96.515625 -117.140625 C 108.179688 -107.554688 114.664062 -93.015625 115.96875 -73.515625 Z M 80.78125 -69.96875 C 80.007812 -81.488281 77.160156 -89.878906 72.234375 -95.140625 C 67.304688 -100.398438 60.203125 -102.722656 50.921875 -102.109375 L 41.015625 -101.453125 L 45.703125 -31.015625 L 53.28125 -31.515625 C 63.601562 -32.203125 70.96875 -35.703125 75.375 -42.015625 C 79.789062 -48.328125 81.59375 -57.644531 80.78125 -69.96875 Z M 80.78125 -69.96875 "/></g></g></g><g fill="rgb(0%, 100%, 100%)" fill-opacity="1"><g transform="translate(132.910584, 194.18658)"><g><path d="M 50.828125 -42.3125 L 47.53125 3.421875 L 13.59375 0.984375 L 22.640625 -124.703125 L 63.8125 -121.75 C 97.957031 -119.289062 114.140625 -105.679688 112.359375 -80.921875 C 111.304688 -66.367188 103.390625 -55.617188 88.609375 -48.671875 L 121.296875 8.734375 L 82.78125 5.953125 L 59.4375 -41.6875 Z M 52.65625 -67.84375 L 59.03125 -67.390625 C 70.882812 -66.535156 77.191406 -71.351562 77.953125 -81.84375 C 78.578125 -90.488281 73.078125 -95.226562 61.453125 -96.0625 L 54.734375 -96.546875 Z M 52.65625 -67.84375 "/></g></g></g><g fill="rgb(100%, 0%, 100%)" fill-opacity="1"><g transform="translate(22.103178, 197.203606)"><g><path d="M 115.96875 -73.515625 C 117.351562 -52.523438 112.644531 -35.972656 101.84375 -23.859375 C 91.050781 -11.742188 75.191406 -4.992188 54.265625 -3.609375 L 13.59375 -0.90625 L 5.25 -126.640625 L 48.765625 -129.53125 C 68.941406 -130.863281 84.859375 -126.734375 96.515625 -117.140625 C 108.179688 -107.554688 114.664062 -93.015625 115.96875 -73.515625 Z M 80.78125 -69.96875 C 80.007812 -81.488281 77.160156 -89.878906 72.234375 -95.140625 C 67.304688 -100.398438 60.203125 -102.722656 50.921875 -102.109375 L 41.015625 -101.453125 L 45.703125 -31.015625 L 53.28125 -31.515625 C 63.601562 -32.203125 70.96875 -35.703125 75.375 -42.015625 C 79.789062 -48.328125 81.59375 -57.644531 80.78125 -69.96875 Z M 80.78125 -69.96875 "/></g></g></g><g fill="rgb(100%, 0%, 100%)" fill-opacity="1"><g transform="translate(142.366809, 188.944901)"><g><path d="M 50.828125 -42.3125 L 47.53125 3.421875 L 13.59375 0.984375 L 22.640625 -124.703125 L 63.8125 -121.75 C 97.957031 -119.289062 114.140625 -105.679688 112.359375 -80.921875 C 111.304688 -66.367188 103.390625 -55.617188 88.609375 -48.671875 L 121.296875 8.734375 L 82.78125 5.953125 L 59.4375 -41.6875 Z M 52.65625 -67.84375 L 59.03125 -67.390625 C 70.882812 -66.535156 77.191406 -71.351562 77.953125 -81.84375 C 78.578125 -90.488281 73.078125 -95.226562 61.453125 -96.0625 L 54.734375 -96.546875 Z M 52.65625 -67.84375 "/></g></g></g><g fill="rgb(0%, 0%, 0%)" fill-opacity="1"><g transform="translate(17.375058, 199.824446)"><g><path d="M 115.96875 -73.515625 C 117.351562 -52.523438 112.644531 -35.972656 101.84375 -23.859375 C 91.050781 -11.742188 75.191406 -4.992188 54.265625 -3.609375 L 13.59375 -0.90625 L 5.25 -126.640625 L 48.765625 -129.53125 C 68.941406 -130.863281 84.859375 -126.734375 96.515625 -117.140625 C 108.179688 -107.554688 114.664062 -93.015625 115.96875 -73.515625 Z M 80.78125 -69.96875 C 80.007812 -81.488281 77.160156 -89.878906 72.234375 -95.140625 C 67.304688 -100.398438 60.203125 -102.722656 50.921875 -102.109375 L 41.015625 -101.453125 L 45.703125 -31.015625 L 53.28125 -31.515625 C 63.601562 -32.203125 70.96875 -35.703125 75.375 -42.015625 C 79.789062 -48.328125 81.59375 -57.644531 80.78125 -69.96875 Z M 80.78125 -69.96875 "/></g></g></g><g fill="rgb(0%, 0%, 0%)" fill-opacity="1"><g transform="translate(137.638689, 191.56574)"><g><path d="M 50.828125 -42.3125 L 47.53125 3.421875 L 13.59375 0.984375 L 22.640625 -124.703125 L 63.8125 -121.75 C 97.957031 -119.289062 114.140625 -105.679688 112.359375 -80.921875 C 111.304688 -66.367188 103.390625 -55.617188 88.609375 -48.671875 L 121.296875 8.734375 L 82.78125 5.953125 L 59.4375 -41.6875 Z M 52.65625 -67.84375 L 59.03125 -67.390625 C 70.882812 -66.535156 77.191406 -71.351562 77.953125 -81.84375 C 78.578125 -90.488281 73.078125 -95.226562 61.453125 -96.0625 L 54.734375 -96.546875 Z M 52.65625 -67.84375 "/></g></g></g></g></g></g></svg>